<mxfile host="app.diagrams.net" modified="2020-04-25T19:56:26.701Z" agent="5.0 (Windows NT 10.0; Win64; x64) AppleWebKit/537.36 (KHTML, like Gecko) Chrome/81.0.4044.122 Safari/537.36" etag="KqtIINPadeoBilaqpyLK" version="13.0.1" type="github">
  <diagram id="sdNlcr7cI85zag4RoKk2" name="Page-1">
    <mxGraphModel dx="2076" dy="1096" grid="1" gridSize="10" guides="1" tooltips="1" connect="1" arrows="1" fold="1" page="1" pageScale="1" pageWidth="827" pageHeight="1169" math="0" shadow="0">
      <root>
        <mxCell id="0" />
        <mxCell id="1" parent="0" />
        <mxCell id="-J3gMxD3hmZqgVKwi4Ce-2" value="&lt;font color=&quot;#ffffff&quot; style=&quot;font-size: 23px&quot;&gt;Violation of confidentiality&lt;/font&gt;&lt;span style=&quot;font-family: monospace ; font-size: 0px&quot;&gt;3CmxGraphModel%3E%3Croot%3E%3CmxCell%20id%3D%220%22%2F%3E%3CmxCell%20id%3D%221%22%20parent%3D%220%22%2F%3E%3CmxCell%20id%3D%222%22%20value%3D%22%26lt%3Bfont%20color%3D%26quot%3B%23ffffff%26quot%3B%20style%3D%26quot%3Bfont-size%3A%2023px%26quot%3B%26gt%3BViolation%20of%20availability%26lt%3B%2Ffont%26gt%3B%22%20style%3D%22rounded%3D1%3BwhiteSpace%3Dwrap%3Bhtml%3D1%3BstrokeColor%3D%23330000%3BstrokeWidth%3D4%3BfillColor%3D%23333333%3BgradientColor%3Dnone%3BarcSize%3D42%3B%22%20vertex%3D%221%22%20parent%3D%221%22%3E%3CmxGeometry%20x%3D%22530%22%20y%3D%22260%22%20width%3D%22199%22%20height%3D%2290%22%20as%3D%22geometry%22%2F%3E%3C%2FmxCell%3E%3C%2Froot%3E%3C%2FmxGraphModel%3E&lt;/span&gt;" style="rounded=1;whiteSpace=wrap;html=1;strokeColor=#330000;strokeWidth=4;fillColor=#333333;gradientColor=none;arcSize=42;" parent="1" vertex="1">
          <mxGeometry x="700" y="270" width="199" height="90" as="geometry" />
        </mxCell>
        <mxCell id="-J3gMxD3hmZqgVKwi4Ce-3" value="&lt;font color=&quot;#ffffff&quot; style=&quot;font-size: 23px&quot;&gt;Violation of integrity&lt;/font&gt;&lt;span style=&quot;font-family: monospace ; font-size: 0px&quot;&gt;%3CmxGraphModel%3E%3Croot%3E%3CmxCell%20id%3D%220%22%2F%3E%3CmxCell%20id%3D%221%22%20parent%3D%220%22%2F%3E%3CmxCell%20id%3D%222%22%20value%3D%22%26lt%3Bfont%20color%3D%26quot%3B%23ffffff%26quot%3B%20style%3D%26quot%3Bfont-size%3A%2023px%26quot%3B%26gt%3BViolation%20of%20availability%26lt%3B%2Ffont%26gt%3B%22%20style%3D%22rounded%3D1%3BwhiteSpace%3Dwrap%3Bhtml%3D1%3BstrokeColor%3D%23330000%3BstrokeWidth%3D4%3BfillColor%3D%23333333%3BgradientColor%3Dnone%3BarcSize%3D42%3B%22%20vertex%3D%221%22%20parent%3D%221%22%3E%3CmxGeometry%20x%3D%22530%22%20y%3D%22260%22%20width%3D%22199%22%20height%3D%2290%22%20as%3D%22geometry%22%2F%3E%3C%2FmxCell%3E%3C%2Froot%3E%3C%2FmxGraphModel%3E&lt;/span&gt;" style="rounded=1;whiteSpace=wrap;html=1;strokeColor=#330000;strokeWidth=4;fillColor=#333333;gradientColor=none;arcSize=42;" parent="1" vertex="1">
          <mxGeometry x="1294" y="260" width="200" height="90" as="geometry" />
        </mxCell>
        <mxCell id="-J3gMxD3hmZqgVKwi4Ce-4" value="&lt;font color=&quot;#ffffff&quot; style=&quot;font-size: 23px&quot;&gt;Violation of authenticity&lt;/font&gt;" style="rounded=1;whiteSpace=wrap;html=1;strokeColor=#330000;strokeWidth=4;fillColor=#333333;gradientColor=none;arcSize=42;" parent="1" vertex="1">
          <mxGeometry x="1869" y="260" width="199" height="90" as="geometry" />
        </mxCell>
        <mxCell id="-J3gMxD3hmZqgVKwi4Ce-5" value="&lt;font color=&quot;#ffffff&quot;&gt;&lt;span style=&quot;font-size: 23px&quot;&gt;Weak password&lt;/span&gt;&lt;/font&gt;" style="rounded=1;whiteSpace=wrap;html=1;strokeColor=#330000;strokeWidth=4;fillColor=#333333;gradientColor=none;arcSize=42;" parent="1" vertex="1">
          <mxGeometry x="2020" y="440" width="190" height="90" as="geometry" />
        </mxCell>
        <mxCell id="-J3gMxD3hmZqgVKwi4Ce-7" value="&lt;font color=&quot;#ffffff&quot;&gt;&lt;span style=&quot;font-size: 23px&quot;&gt;Copy on local device&lt;/span&gt;&lt;/font&gt;" style="rounded=1;whiteSpace=wrap;html=1;strokeColor=#330000;strokeWidth=4;fillColor=#333333;gradientColor=none;arcSize=42;" parent="1" vertex="1">
          <mxGeometry x="570" y="440" width="190" height="90" as="geometry" />
        </mxCell>
        <mxCell id="-J3gMxD3hmZqgVKwi4Ce-8" value="&lt;font color=&quot;#ffffff&quot;&gt;&lt;span style=&quot;font-size: 23px&quot;&gt;Copy on cloud/external device&lt;/span&gt;&lt;/font&gt;" style="rounded=1;whiteSpace=wrap;html=1;strokeColor=#330000;strokeWidth=4;fillColor=#333333;gradientColor=none;arcSize=42;" parent="1" vertex="1">
          <mxGeometry x="827" y="440" width="190" height="90" as="geometry" />
        </mxCell>
        <mxCell id="-J3gMxD3hmZqgVKwi4Ce-9" value="" style="endArrow=classic;html=1;strokeColor=#000000;strokeWidth=4;fontColor=#FFD966;exitX=0.5;exitY=0;exitDx=0;exitDy=0;entryX=0.688;entryY=0.998;entryDx=0;entryDy=0;entryPerimeter=0;" parent="1" source="-J3gMxD3hmZqgVKwi4Ce-5" target="-J3gMxD3hmZqgVKwi4Ce-4" edge="1">
          <mxGeometry width="50" height="50" relative="1" as="geometry">
            <mxPoint x="1659.5" y="359" as="sourcePoint" />
            <mxPoint x="2007" y="330" as="targetPoint" />
          </mxGeometry>
        </mxCell>
        <mxCell id="-J3gMxD3hmZqgVKwi4Ce-10" value="" style="endArrow=classic;html=1;strokeColor=#000000;strokeWidth=4;fontColor=#FFD966;exitX=0.5;exitY=0;exitDx=0;exitDy=0;" parent="1" source="-J3gMxD3hmZqgVKwi4Ce-26" edge="1">
          <mxGeometry width="50" height="50" relative="1" as="geometry">
            <mxPoint x="1389" y="450" as="sourcePoint" />
            <mxPoint x="1369" y="350" as="targetPoint" />
          </mxGeometry>
        </mxCell>
        <mxCell id="-J3gMxD3hmZqgVKwi4Ce-17" value="&lt;span style=&quot;font-family: &amp;#34;arial&amp;#34; , sans-serif ; text-align: left&quot;&gt;&lt;font style=&quot;font-size: 23px&quot; color=&quot;#ffffff&quot;&gt;Approachable credentials&lt;/font&gt;&lt;/span&gt;" style="rounded=1;whiteSpace=wrap;html=1;strokeColor=#330000;strokeWidth=4;fillColor=#333333;gradientColor=none;arcSize=42;" parent="1" vertex="1">
          <mxGeometry x="1760" y="440" width="190" height="90" as="geometry" />
        </mxCell>
        <mxCell id="-J3gMxD3hmZqgVKwi4Ce-18" value="" style="endArrow=classic;html=1;strokeColor=#000000;strokeWidth=4;fontColor=#FFD966;entryX=0.384;entryY=0.998;entryDx=0;entryDy=0;exitX=0.5;exitY=0;exitDx=0;exitDy=0;entryPerimeter=0;" parent="1" source="-J3gMxD3hmZqgVKwi4Ce-17" target="-J3gMxD3hmZqgVKwi4Ce-4" edge="1">
          <mxGeometry width="50" height="50" relative="1" as="geometry">
            <mxPoint x="2135" y="440" as="sourcePoint" />
            <mxPoint x="1956.2939999999999" y="340.72" as="targetPoint" />
          </mxGeometry>
        </mxCell>
        <mxCell id="-J3gMxD3hmZqgVKwi4Ce-20" value="&lt;font style=&quot;font-size: 18px&quot;&gt;Clumsy&amp;nbsp;&lt;br&gt;Direttore&lt;br&gt;dei&lt;br&gt;lavori&lt;/font&gt;" style="ellipse;whiteSpace=wrap;html=1;aspect=fixed;fillColor=#FF0000;fontColor=#FFFFFF;" parent="1" vertex="1">
          <mxGeometry x="1370" y="30" width="130" height="130" as="geometry" />
        </mxCell>
        <mxCell id="-J3gMxD3hmZqgVKwi4Ce-21" value="" style="endArrow=classic;html=1;strokeColor=#000000;strokeWidth=4;fontColor=#FFD966;entryX=0.415;entryY=1.015;entryDx=0;entryDy=0;exitX=0.5;exitY=0;exitDx=0;exitDy=0;entryPerimeter=0;" parent="1" source="-J3gMxD3hmZqgVKwi4Ce-7" target="-J3gMxD3hmZqgVKwi4Ce-2" edge="1">
          <mxGeometry width="50" height="50" relative="1" as="geometry">
            <mxPoint x="1285" y="470" as="sourcePoint" />
            <mxPoint x="1290" y="370" as="targetPoint" />
          </mxGeometry>
        </mxCell>
        <mxCell id="-J3gMxD3hmZqgVKwi4Ce-22" value="" style="endArrow=classic;html=1;strokeColor=#000000;strokeWidth=4;fontColor=#FFD966;exitX=0.5;exitY=0;exitDx=0;exitDy=0;entryX=0.653;entryY=1.007;entryDx=0;entryDy=0;entryPerimeter=0;" parent="1" source="-J3gMxD3hmZqgVKwi4Ce-8" target="-J3gMxD3hmZqgVKwi4Ce-2" edge="1">
          <mxGeometry width="50" height="50" relative="1" as="geometry">
            <mxPoint x="1295" y="480" as="sourcePoint" />
            <mxPoint x="843" y="351" as="targetPoint" />
          </mxGeometry>
        </mxCell>
        <mxCell id="-J3gMxD3hmZqgVKwi4Ce-26" value="&lt;font color=&quot;#ffffff&quot;&gt;&lt;span style=&quot;font-size: 23px&quot;&gt;Change&lt;/span&gt;&lt;/font&gt;" style="rounded=1;whiteSpace=wrap;html=1;strokeColor=#330000;strokeWidth=4;fillColor=#333333;gradientColor=none;arcSize=42;" parent="1" vertex="1">
          <mxGeometry x="1180" y="440" width="190" height="90" as="geometry" />
        </mxCell>
        <mxCell id="-J3gMxD3hmZqgVKwi4Ce-27" value="&lt;font color=&quot;#ffffff&quot;&gt;&lt;span style=&quot;font-size: 23px&quot;&gt;Delete&lt;/span&gt;&lt;/font&gt;" style="rounded=1;whiteSpace=wrap;html=1;strokeColor=#330000;strokeWidth=4;fillColor=#333333;gradientColor=none;arcSize=42;" parent="1" vertex="1">
          <mxGeometry x="1420" y="440" width="190" height="90" as="geometry" />
        </mxCell>
        <mxCell id="-J3gMxD3hmZqgVKwi4Ce-28" value="" style="endArrow=classic;html=1;strokeColor=#000000;strokeWidth=4;fontColor=#FFD966;entryX=0.667;entryY=1.002;entryDx=0;entryDy=0;exitX=0.5;exitY=0;exitDx=0;exitDy=0;entryPerimeter=0;" parent="1" source="-J3gMxD3hmZqgVKwi4Ce-27" target="-J3gMxD3hmZqgVKwi4Ce-3" edge="1">
          <mxGeometry width="50" height="50" relative="1" as="geometry">
            <mxPoint x="1265" y="505" as="sourcePoint" />
            <mxPoint x="1404" y="360" as="targetPoint" />
          </mxGeometry>
        </mxCell>
      </root>
    </mxGraphModel>
  </diagram>
</mxfile>
